<svg width="247" height="60" viewBox="0 0 247 60" fill="none" xmlns="http://www.w3.org/2000/svg">
<path d="M4.47266 47V19.2266H0.390625V12.625H15.4297V19.2266H11.3477V47H4.47266ZM25.293 47.3125C22.4284 47.3125 20.319 46.5117 18.9648 44.9102C17.6107 43.2956 16.9336 40.9258 16.9336 37.8008V12.625H23.6133V37.5273C23.6133 38.1003 23.6458 38.6536 23.7109 39.1875C23.776 39.7083 23.9258 40.138 24.1602 40.4766C24.3945 40.8151 24.7721 40.9844 25.293 40.9844C25.8268 40.9844 26.2109 40.8216 26.4453 40.4961C26.6797 40.1576 26.8229 39.7214 26.875 39.1875C26.9401 38.6536 26.9727 38.1003 26.9727 37.5273V12.625H33.6523V37.8008C33.6523 40.9258 32.9753 43.2956 31.6211 44.9102C30.2669 46.5117 28.1576 47.3125 25.293 47.3125ZM36.2891 47V12.625H46.8359C48.5938 12.625 49.9219 13.0286 50.8203 13.8359C51.7188 14.6302 52.3177 15.75 52.6172 17.1953C52.9297 18.6276 53.0859 20.3138 53.0859 22.2539C53.0859 24.1289 52.8451 25.6263 52.3633 26.7461C51.8945 27.8659 51.0026 28.6406 49.6875 29.0703C50.7682 29.2917 51.5234 29.832 51.9531 30.6914C52.3958 31.5378 52.6172 32.638 52.6172 33.9922V47H45.8398V33.543C45.8398 32.5404 45.6315 31.9219 45.2148 31.6875C44.8112 31.4401 44.1536 31.3164 43.2422 31.3164V47H36.2891ZM43.2812 25.3594H44.9414C45.8919 25.3594 46.3672 24.3242 46.3672 22.2539C46.3672 20.9128 46.263 20.0339 46.0547 19.6172C45.8464 19.2005 45.4557 18.9922 44.8828 18.9922H43.2812V25.3594ZM55.3516 47V12.625H65.8203L68.7109 33.582L71.582 12.625H82.1484V47H75.8594V22.2344L71.9141 47H65.7422L61.5625 22.2344V47H55.3516ZM84.2578 47L87.5781 12.625H99.2383L102.5 47H95.9961L95.5078 41.4531H91.3672L90.9375 47H84.2578ZM91.8555 35.9648H94.9805L93.4766 18.4844H93.1641L91.8555 35.9648ZM123.359 47V12.625H137.109V19.3242H130.273V24.793H136.758V31.4141H130.273V47H123.359ZM138.047 47L141.367 12.625H153.027L156.289 47H149.785L149.297 41.4531H145.156L144.727 47H138.047ZM145.645 35.9648H148.77L147.266 18.4844H146.953L145.645 35.9648ZM142.5 11.5898V7.23438L151.777 2.97656V9.75391L142.5 11.5898ZM166.406 47.3125C163.919 47.3125 161.914 46.5378 160.391 44.9883C158.88 43.4388 158.125 41.2708 158.125 38.4844V22.625C158.125 19.2917 158.783 16.7396 160.098 14.9688C161.426 13.1979 163.581 12.3125 166.562 12.3125C168.19 12.3125 169.635 12.612 170.898 13.2109C172.174 13.8099 173.177 14.7083 173.906 15.9062C174.635 17.0911 175 18.5885 175 20.3984V26.3359H168.164V21.2578C168.164 20.2292 168.034 19.5391 167.773 19.1875C167.513 18.8229 167.109 18.6406 166.562 18.6406C165.924 18.6406 165.495 18.875 165.273 19.3438C165.052 19.7995 164.941 20.4115 164.941 21.1797V38.3867C164.941 39.3372 165.078 40.0078 165.352 40.3984C165.638 40.7891 166.042 40.9844 166.562 40.9844C167.148 40.9844 167.559 40.7435 167.793 40.2617C168.04 39.7799 168.164 39.1549 168.164 38.3867V32.1953H175.078V38.6992C175.078 41.7201 174.316 43.9141 172.793 45.2812C171.27 46.6354 169.141 47.3125 166.406 47.3125ZM177.07 47V12.625H183.711V47H177.07ZM186.445 47V12.625H193.32V41.1406H200.391V47H186.445Z" fill="#4780F1"/>
<path d="M242.571 47H222.643C218.975 47 216 44.0605 216 40.4375V18.5625C216 14.9395 218.975 12 222.643 12H243.679C245.512 12 247 13.4697 247 15.2812V34.9688C247 36.3975 246.073 37.6143 244.786 38.0654V42.625C246.01 42.625 247 43.6025 247 44.8125C247 46.0225 246.01 47 244.786 47H242.571ZM222.643 38.25C221.418 38.25 220.429 39.2275 220.429 40.4375C220.429 41.6475 221.418 42.625 222.643 42.625H240.357V38.25H222.643ZM224.857 22.3906C224.857 23.2998 225.598 24.0312 226.518 24.0312H238.696C239.617 24.0312 240.357 23.2998 240.357 22.3906C240.357 21.4814 239.617 20.75 238.696 20.75H226.518C225.598 20.75 224.857 21.4814 224.857 22.3906ZM226.518 27.3125C225.598 27.3125 224.857 28.0439 224.857 28.9531C224.857 29.8623 225.598 30.5938 226.518 30.5938H238.696C239.617 30.5938 240.357 29.8623 240.357 28.9531C240.357 28.0439 239.617 27.3125 238.696 27.3125H226.518Z" fill="#4780F1"/>
</svg>
